<svg width="16" height="16" viewBox="0 0 16 16" fill="none" xmlns="http://www.w3.org/2000/svg">
<path fill-rule="evenodd" clip-rule="evenodd" d="M4.31496 0H11.685C14.0526 0 16 1.95211 16 4.32535V11.6746C16 14.0479 14.0526 16 11.685 16H4.31496C1.94741 16 0 14.0479 0 11.6746V4.32535C0 1.95211 1.94741 0 4.31496 0ZM12.2957 2.79439C12.7922 2.79439 13.2123 3.21553 13.2123 3.71319C13.2123 4.21085 12.7922 4.63199 12.2957 4.63199C11.7614 4.63199 11.3791 4.21085 11.3791 3.71319C11.3791 3.21553 11.7614 2.79439 12.2957 2.79439ZM7.98078 3.63611H8.01922C10.3868 3.63611 12.3726 5.62675 12.3726 8C12.3726 10.4112 10.3868 12.3639 8.01922 12.3639H7.98078C5.61323 12.3639 3.66582 10.4118 3.66582 8C3.66582 5.62675 5.61323 3.63611 7.98078 3.63611ZM7.98078 5.12909H8.01922C9.58496 5.12909 10.8832 6.4305 10.8832 8C10.8832 9.60748 9.58496 10.9089 8.01922 10.9089H7.98078C6.41504 10.9089 5.11677 9.60748 5.11677 8C5.11677 6.4305 6.41504 5.12909 7.98078 5.12909ZM4.3534 1.37792H11.6466C13.2887 1.37792 14.6248 2.71787 14.6248 4.36333V11.6361C14.6248 13.2821 13.2881 14.6215 11.6466 14.6215H4.3534C2.71134 14.6215 1.37517 13.2816 1.37517 11.6361V4.36389C1.37461 2.71787 2.71134 1.37792 4.3534 1.37792Z" fill="#03F2F2"/>
</svg>
