<svg width="16" height="16" viewBox="0 0 16 16" fill="none" xmlns="http://www.w3.org/2000/svg">
<path fill-rule="evenodd" clip-rule="evenodd" d="M5.15748 4.34533C5.60405 4.06131 5.88864 4.26434 6.05062 4.71091L6.45669 5.76659C6.45669 5.76659 6.74072 6.33521 6.01012 6.90382C5.88808 6.98481 5.88808 6.98481 5.92913 7.18785C6.09168 7.67492 6.74128 9.13723 8.81271 10.2745C9.01575 10.3965 9.05624 10.3965 9.25928 10.234C9.42182 10.0714 9.62486 9.86839 9.7874 9.70585C10.153 9.38076 10.356 9.25928 10.6805 9.50281C10.9241 9.66535 11.1676 9.86839 11.4117 10.0309C11.6552 10.234 12.0613 10.4775 11.6552 10.9651L11.2897 11.4117C10.7615 12.0613 10.315 12.1018 9.62486 11.9398C6.98538 11.2497 5.036 9.38133 4.18335 6.74184C3.89876 5.7261 4.30484 4.87289 5.15748 4.34533ZM8 0C12.4263 0 16 3.57368 16 8C16 12.4263 12.4263 16 8 16C6.78178 16 5.64454 15.7565 4.62936 15.2688L0.365579 16L0.934196 11.7767L0.893701 11.6957C0.325084 10.599 0 9.34027 0 8C0 3.57368 3.57368 0 8 0ZM2.96457 14.2132L4.1018 14.0101L4.7919 13.8881C5.76659 14.4162 6.82227 14.7002 8 14.7002C11.6957 14.7002 14.7008 11.6952 14.7008 7.99944C14.7008 4.30371 11.6957 1.29865 8 1.29865C4.30427 1.29865 1.29978 4.30484 1.29978 8C1.29978 9.34027 1.70585 10.5585 2.35546 11.6142L2.27447 12.2233L2.11192 13.4421L1.98988 14.3763L2.96457 14.2132Z" fill="#03F2F2"/>
</svg>
