<svg width="16" height="16" viewBox="0 0 16 16" fill="none" xmlns="http://www.w3.org/2000/svg">
<path d="M2.83767 11.0625C2.09322 9.80655 1.83282 8.32202 2.10536 6.88764C2.3779 5.45326 3.16462 4.16768 4.31784 3.27225C5.47107 2.37682 6.91148 1.93312 8.36866 2.02444C9.82584 2.11576 11.1996 2.73583 12.232 3.76823C13.2644 4.80064 13.8845 6.17438 13.9758 7.63156C14.0671 9.08874 13.6234 10.5292 12.728 11.6824C11.8325 12.8356 10.547 13.6223 9.11258 13.8949C7.6782 14.1674 6.19366 13.907 4.93767 13.1625V13.1625L2.86267 13.75C2.77765 13.7749 2.68752 13.7764 2.6017 13.7545C2.51589 13.7325 2.43756 13.6879 2.37493 13.6253C2.3123 13.5627 2.26767 13.4843 2.24572 13.3985C2.22377 13.3127 2.2253 13.2226 2.25017 13.1375L2.83767 11.0625Z" stroke="#00FF99" stroke-linecap="round" stroke-linejoin="round"/>
<path d="M9.50627 11.5C8.84837 11.5017 8.19664 11.3733 7.58851 11.1223C6.98038 10.8713 6.42784 10.5026 5.96264 10.0374C5.49743 9.57219 5.12874 9.01965 4.87774 8.41152C4.62673 7.80339 4.49837 7.15166 4.50002 6.49376C4.50167 6.03072 4.68677 5.5872 5.01478 5.26037C5.34279 4.93353 5.78697 4.75001 6.25002 4.75001V4.75001C6.32641 4.7494 6.40156 4.7694 6.46755 4.80789C6.53355 4.84639 6.58794 4.90196 6.62502 4.96876L7.35627 6.24376C7.39975 6.32127 7.42207 6.40886 7.42097 6.49773C7.41987 6.58659 7.3954 6.6736 7.35002 6.75001L6.76252 7.73126C7.06344 8.4007 7.59933 8.93659 8.26877 9.23751L9.25002 8.65001C9.32643 8.60463 9.41344 8.58015 9.5023 8.57906C9.59117 8.57796 9.67876 8.60028 9.75627 8.64376L11.0313 9.37501C11.0981 9.41209 11.1536 9.46648 11.1921 9.53247C11.2306 9.59847 11.2506 9.67362 11.25 9.75001C11.2484 10.2126 11.0643 10.6558 10.7379 10.9834C10.4114 11.3111 9.9688 11.4967 9.50627 11.5V11.5Z" stroke="#00FF99" stroke-linecap="round" stroke-linejoin="round"/>
</svg>
