<svg width="193" height="38" viewBox="0 0 193 38" fill="none" xmlns="http://www.w3.org/2000/svg">
<g clip-path="url(#clip0_587_1488)">
<path d="M23.8257 33.5315H21.5694C20.9405 33.5315 20.4316 33.0306 20.4316 32.4115C20.4316 31.7924 20.9405 31.2915 21.5694 31.2915H23.8257C25.68 31.2915 27.2465 29.6632 27.2465 27.7347V23.4706C27.2465 22.8515 27.7553 22.3506 28.3842 22.3506C29.0131 22.3506 29.5219 22.8515 29.5219 23.4706V27.7347C29.52 30.8769 26.913 33.5315 23.8257 33.5315Z" fill="url(#paint0_linear_587_1488)"/>
<path d="M17.0291 33.5315H14.7823C9.1318 33.5315 4.53711 29.031 4.53711 23.4969V12.3197C4.53711 11.4155 4.69147 10.5282 4.99829 9.68396C5.20983 9.10241 5.85968 8.79662 6.45045 9.00486C7.04123 9.21121 7.34995 9.8528 7.14032 10.4344C6.92117 11.0384 6.81064 11.6725 6.81064 12.3197V23.4987C6.81064 27.7966 10.3877 31.2935 14.7823 31.2935H17.0291C17.658 31.2935 18.1668 31.7943 18.1668 32.4134C18.1668 33.0325 17.658 33.5315 17.0291 33.5315Z" fill="url(#paint1_linear_587_1488)"/>
<path d="M32.9251 38H13.6221C6.11165 38 0 31.9837 0 24.5886V12.299C0 5.51728 5.60473 0 12.492 0H17.0943C23.9454 0 29.5196 5.51728 29.5196 12.2971V19C29.5196 19.6191 29.0108 20.12 28.3819 20.12C27.753 20.12 27.2442 19.6191 27.2442 19V12.2971C27.2442 6.75168 22.6895 2.23805 17.0924 2.23805H12.492C6.85679 2.23805 2.27353 6.7498 2.27353 12.2971V24.5886C2.27353 30.7493 7.36561 35.7601 13.6221 35.7601H32.9232C33.5521 35.7601 34.061 36.261 34.061 36.88C34.061 37.4972 33.5521 38 32.9251 38Z" fill="url(#paint2_linear_587_1488)"/>
<path d="M23.8407 24.5906C23.2118 24.5906 22.703 24.0897 22.703 23.4706V12.0609C22.703 9.05929 20.2103 6.70868 17.0278 6.70868H12.4864C11.8785 6.70868 11.261 6.82124 10.596 7.05386C10.0052 7.26022 9.35342 6.95631 9.14379 6.37288C8.93416 5.78945 9.24289 5.14973 9.83557 4.94337C10.7484 4.62446 11.6155 4.46875 12.4864 4.46875H17.0278C21.4852 4.46875 24.9765 7.80238 24.9765 12.059V23.4706C24.9784 24.0897 24.4696 24.5906 23.8407 24.5906Z" fill="url(#paint3_linear_587_1488)"/>
<path d="M17.0335 24.5908C15.1488 24.5908 13.6223 23.0863 13.6223 21.2366V14.5299C13.6223 13.9108 14.1311 13.4099 14.76 13.4099C15.3889 13.4099 15.8977 13.9108 15.8977 14.5299V21.2366C15.8977 21.8519 16.4046 22.3528 17.0278 22.3528C17.6586 22.3528 18.1655 21.8519 18.1655 21.2366V13.4174C18.1655 12.183 17.1479 11.1775 15.8958 11.1775H13.6223C12.3702 11.1775 11.3526 12.1774 11.3526 13.4081V15.6461C11.3526 16.2652 10.8438 16.7661 10.2149 16.7661C9.58598 16.7661 9.07715 16.2652 9.07715 15.6461V13.4081C9.07715 10.943 11.1163 8.93945 13.6204 8.93945H15.8939C18.3999 8.93945 20.4372 10.9486 20.4372 13.4174V21.2366C20.4372 23.0863 18.9107 24.5908 17.0335 24.5908Z" fill="url(#paint4_linear_587_1488)"/>
<path d="M23.8408 29.0609H15.894C12.1359 29.0609 9.0791 26.0518 9.0791 22.3524C9.0791 21.7333 9.58793 21.2324 10.2168 21.2324C10.8457 21.2324 11.3545 21.7333 11.3545 22.3524C11.3545 24.8174 13.3917 26.821 15.8959 26.821H23.8427C24.4716 26.821 24.9804 27.3219 24.9804 27.941C24.9785 28.56 24.4697 29.0609 23.8408 29.0609Z" fill="url(#paint5_linear_587_1488)"/>
<path d="M10.2187 20.1184C10.1444 20.1184 10.0701 20.1128 9.99575 20.0959C9.92143 20.0828 9.85092 20.0602 9.78231 20.0321C9.71371 20.004 9.64891 19.9721 9.58793 19.9308C9.52314 19.8895 9.46596 19.8408 9.4126 19.7901C9.20297 19.5837 9.0791 19.293 9.0791 19.0003C9.0791 18.9272 9.08482 18.854 9.10197 18.7808C9.11531 18.7114 9.13818 18.6383 9.16676 18.5707C9.19535 18.5032 9.23156 18.4394 9.26967 18.3794C9.3116 18.3156 9.36115 18.2593 9.4126 18.2068C9.46406 18.1561 9.52314 18.1073 9.58793 18.0661C9.64701 18.0286 9.71371 17.9929 9.78231 17.9648C9.85092 17.9366 9.92143 17.9179 9.99575 17.901C10.1406 17.8728 10.293 17.8728 10.4398 17.901C10.5141 17.916 10.5846 17.9366 10.6532 17.9648C10.7218 17.9929 10.7885 18.0286 10.8514 18.0661C10.9124 18.1073 10.9715 18.1542 11.0229 18.2068C11.0744 18.2574 11.1239 18.3156 11.1659 18.3794C11.2078 18.4394 11.2402 18.5032 11.2688 18.5707C11.2974 18.6383 11.3202 18.7114 11.3336 18.7808C11.3488 18.854 11.3564 18.9272 11.3564 19.0003C11.3564 19.0735 11.3507 19.1466 11.3336 19.2161C11.3202 19.2892 11.2974 19.3586 11.2688 19.4262C11.2402 19.4937 11.2078 19.5594 11.1659 19.6213C11.1239 19.6832 11.0763 19.7395 11.0229 19.7901C10.9715 19.8408 10.9124 19.8895 10.8514 19.9308C10.7904 19.9721 10.7218 20.004 10.6532 20.0321C10.5846 20.0602 10.5141 20.0828 10.4398 20.0959C10.3674 20.1128 10.2892 20.1184 10.2187 20.1184Z" fill="url(#paint6_linear_587_1488)"/>
<path d="M37.4687 37.9983C37.3944 37.9983 37.3201 37.9927 37.2458 37.9758C37.1714 37.9626 37.1009 37.9401 37.0323 37.912C36.9637 37.8857 36.897 37.852 36.8379 37.8107C36.7731 37.7694 36.716 37.7206 36.6626 37.67C36.6111 37.6193 36.5616 37.5612 36.5197 37.5011C36.4816 37.4411 36.4453 37.3736 36.4168 37.306C36.3882 37.2385 36.3653 37.1691 36.352 37.0959C36.3367 37.0265 36.3291 36.9534 36.3291 36.8802C36.3291 36.807 36.3348 36.7339 36.352 36.6607C36.3653 36.5913 36.3882 36.5181 36.4168 36.4506C36.4453 36.3831 36.4816 36.3193 36.5197 36.2592C36.5616 36.1955 36.6092 36.1392 36.6626 36.0867C36.716 36.0341 36.7731 35.9872 36.8379 35.946C36.897 35.9084 36.9637 35.8728 37.0323 35.8447C37.1009 35.8165 37.1714 35.7959 37.2458 35.7809C37.3906 35.7527 37.543 35.7527 37.6898 35.7809C37.7641 35.7959 37.8346 35.8165 37.9032 35.8447C37.9718 35.8728 38.0385 35.9084 38.1014 35.946C38.1624 35.9872 38.2215 36.0341 38.2729 36.0867C38.3244 36.1373 38.3739 36.1955 38.4159 36.2592C38.454 36.3193 38.4902 36.3831 38.5188 36.4506C38.5474 36.52 38.5702 36.5913 38.5836 36.6607C38.5988 36.7339 38.6064 36.807 38.6064 36.8802C38.6064 36.9534 38.6007 37.0265 38.5836 37.0959C38.5702 37.1691 38.5474 37.2385 38.5188 37.306C38.4902 37.3736 38.454 37.4392 38.4159 37.5011C38.3739 37.5612 38.3244 37.6193 38.2729 37.67C38.2215 37.7206 38.1624 37.7694 38.1014 37.8107C38.0404 37.852 37.9718 37.8876 37.9032 37.912C37.8346 37.9401 37.7641 37.9626 37.6898 37.9758C37.6174 37.9927 37.5392 37.9983 37.4687 37.9983Z" fill="url(#paint7_linear_587_1488)"/>
<path d="M97.64 30.1711C96.3898 30.1711 95.376 29.1731 95.376 27.9425C95.376 26.7118 96.3898 25.7119 97.64 25.7119C98.8901 25.7119 99.904 26.7099 99.904 27.9406V27.9425C99.904 29.1731 98.8901 30.1711 97.64 30.1711Z" fill="#EBFBFF"/>
<path d="M51.0807 37.9907H48.8243C48.1973 37.9907 47.6885 37.4898 47.6885 36.8726V15.6552C47.6885 15.038 48.1973 14.5371 48.8243 14.5371H51.0807C51.7076 14.5371 52.2165 15.038 52.2165 15.6552V36.8726C52.2184 37.4898 51.7095 37.9907 51.0807 37.9907Z" fill="#EBFBFF"/>
<path d="M164.618 37.9906H162.359C161.732 37.9906 161.224 37.4897 161.224 36.8725V15.6532C161.224 15.036 161.732 14.5352 162.359 14.5352H164.618C165.245 14.5352 165.754 15.036 165.754 15.6532V36.8744C165.752 37.4916 165.245 37.9906 164.618 37.9906Z" fill="#00CCCC"/>
<path d="M78.3346 37.9905H76.0744C75.4475 37.9905 74.9405 37.4915 74.9405 36.8743V22.3392C74.9405 20.4913 73.4179 18.9924 71.5407 18.9924H66.9708C65.0937 18.9924 63.5729 20.4895 63.5729 22.3373V32.4001C63.5729 33.0173 63.066 33.5163 62.439 33.5163H60.1788C59.5518 33.5163 59.0449 33.0173 59.0449 32.4001V22.3373C59.0449 18.0282 62.5934 14.5332 66.9727 14.5332H71.5426C75.9201 14.5332 79.4704 18.0263 79.4704 22.3373V36.8725C79.4685 37.4915 78.9597 37.9905 78.3346 37.9905Z" fill="#EBFBFF"/>
<path d="M146.473 37.9906H141.903C137.526 37.9906 133.976 34.4975 133.976 30.1865V15.6532C133.976 15.036 134.484 14.5352 135.111 14.5352H137.37C137.997 14.5352 138.505 15.036 138.505 15.6532V30.1865C138.505 32.0344 140.028 33.5333 141.905 33.5333H146.475C148.352 33.5333 149.873 32.0362 149.873 30.1884V15.6532C149.873 15.036 150.382 14.5352 151.009 14.5352H153.267C153.894 14.5352 154.403 15.036 154.403 15.6532V30.1865C154.401 34.4975 150.851 37.9906 146.473 37.9906Z" fill="#EBFBFF"/>
<path d="M185.074 37.9812H173.716C173.089 37.9812 172.58 37.4804 172.58 36.8632V34.6401C172.58 34.0229 173.089 33.522 173.716 33.522H185.074C186.951 33.522 188.474 32.0231 188.474 30.1753V22.3374C188.474 20.4895 186.951 18.9906 185.074 18.9906H178.257C177.63 18.9906 177.121 18.4897 177.121 17.8725V15.6532C177.121 15.036 177.63 14.5352 178.257 14.5352H185.072C189.451 14.5352 193 18.0282 193 22.3393V30.1771C193 34.4882 189.451 37.9812 185.074 37.9812Z" fill="#00CCCC"/>
<path d="M89.6851 37.9906H87.4249C86.7979 37.9906 86.291 37.4897 86.291 36.8744V22.3393C86.291 18.0301 89.8395 14.5352 94.2188 14.5352H103.309C103.936 14.5352 104.445 15.036 104.445 15.6532V17.8744C104.445 18.4916 103.936 18.9925 103.309 18.9925H94.2188C92.3417 18.9925 90.819 20.4914 90.819 22.3393V36.8744C90.819 37.4916 90.3121 37.9906 89.6851 37.9906Z" fill="#EBFBFF"/>
<path d="M128.286 37.9906H119.195C114.816 37.9906 111.268 34.4975 111.268 30.1865V15.6532C111.268 15.036 111.776 14.5352 112.403 14.5352H114.662C115.289 14.5352 115.797 15.036 115.797 15.6532V30.1865C115.797 32.0344 117.32 33.5333 119.197 33.5333H128.288C128.915 33.5333 129.423 34.0342 129.423 34.6514V36.8744C129.421 37.4897 128.913 37.9906 128.286 37.9906Z" fill="#EBFBFF"/>
</g>
<defs>
<linearGradient id="paint0_linear_587_1488" x1="24.9772" y1="41.856" x2="24.9772" y2="-0.0601845" gradientUnits="userSpaceOnUse">
<stop stop-color="#00CCCC"/>
<stop offset="0.9982" stop-color="#00FF99"/>
</linearGradient>
<linearGradient id="paint1_linear_587_1488" x1="11.3519" y1="41.856" x2="11.3519" y2="-0.0601415" gradientUnits="userSpaceOnUse">
<stop stop-color="#00CCCC"/>
<stop offset="0.9982" stop-color="#00FF99"/>
</linearGradient>
<linearGradient id="paint2_linear_587_1488" x1="17.0309" y1="41.8559" x2="17.0309" y2="-0.0602564" gradientUnits="userSpaceOnUse">
<stop stop-color="#00CCCC"/>
<stop offset="0.9982" stop-color="#00FF99"/>
</linearGradient>
<linearGradient id="paint3_linear_587_1488" x1="17.0289" y1="41.8561" x2="17.0289" y2="-0.0601086" gradientUnits="userSpaceOnUse">
<stop stop-color="#00CCCC"/>
<stop offset="0.9982" stop-color="#00FF99"/>
</linearGradient>
<linearGradient id="paint4_linear_587_1488" x1="14.7584" y1="41.8563" x2="14.7584" y2="-0.0598847" gradientUnits="userSpaceOnUse">
<stop stop-color="#00CCCC"/>
<stop offset="0.9982" stop-color="#00FF99"/>
</linearGradient>
<linearGradient id="paint5_linear_587_1488" x1="17.0292" y1="41.8559" x2="17.0292" y2="-0.0602658" gradientUnits="userSpaceOnUse">
<stop stop-color="#00CCCC"/>
<stop offset="0.9982" stop-color="#00FF99"/>
</linearGradient>
<linearGradient id="paint6_linear_587_1488" x1="10.2164" y1="41.8562" x2="10.2164" y2="-0.0599382" gradientUnits="userSpaceOnUse">
<stop stop-color="#00CCCC"/>
<stop offset="0.9982" stop-color="#00FF99"/>
</linearGradient>
<linearGradient id="paint7_linear_587_1488" x1="37.4664" y1="41.8561" x2="37.4664" y2="-0.060088" gradientUnits="userSpaceOnUse">
<stop stop-color="#00CCCC"/>
<stop offset="0.9982" stop-color="#00FF99"/>
</linearGradient>
<clipPath id="clip0_587_1488">
<rect width="193" height="38" fill="white"/>
</clipPath>
</defs>
</svg>
